<svg xmlns="http://www.w3.org/2000/svg" xmlns:xlink="http://www.w3.org/1999/xlink" width="32" height="32" id="chat"><defs><linearGradient id="a"><stop offset="0" stop-color="#ff1679"></stop><stop offset="1" stop-color="#ff770b"></stop></linearGradient><linearGradient id="b" x1="992.183" x2="1019.298" y1="516.081" y2="545.959" gradientTransform="translate(-1015.137 491.682) scale(1.02524)" gradientUnits="userSpaceOnUse" xlink:href="#a"></linearGradient></defs><g transform="translate(0 -1020.362)"><rect width="32" height="32" y="1020.362" fill="url(#b)" rx="6.763" ry="6.763"></rect><path style="text-indent:0;text-align:start;line-height:normal;text-transform:none;block-progression:tb" fill="#fff" d="M18.438 9c-1.463 0-2.78.341-3.782.938-1.001.596-1.719 1.482-1.719 2.53 0 1.05.718 1.936 1.72 2.532 1 .596 2.318.969 3.78.969.314 0 .605-.03.907-.063.045.034.134.076.218.156.188.178.411.426.657.688.245.262.498.542.718.75.11.104.233.204.344.281a.9.9 0 0 0 .188.094.548.548 0 0 0 .375.031.592.592 0 0 0 .375-.312.72.72 0 0 0 .062-.282c.001-.145-.032-.274-.062-.406-.06-.264-.154-.544-.25-.843-.096-.298-.201-.613-.25-.813.171-.08.344-.157.5-.25a4.6 4.6 0 0 0 .687-.5c.206-.181.411-.38.563-.594.151-.213.26-.413.343-.656.067-.194.08-.418.094-.625a.496.496 0 0 0 .032-.156.496.496 0 0 0-.094-.281c-.124-.914-.724-1.714-1.625-2.25C21.217 9.34 19.9 9 18.437 9zm0 1c1.302 0 2.47.299 3.28.781.812.483 1.22 1.09 1.22 1.688 0 .15-.013.293-.063.437-.05.145-.117.294-.219.438a2.731 2.731 0 0 1-.406.437 3.488 3.488 0 0 1-.531.375c-.203.12-.412.246-.657.344a.615.615 0 0 0-.343.344.68.68 0 0 0-.032.25c.005.138.031.274.063.406.043.175.125.365.188.563-.238-.253-.472-.515-.688-.72a3.25 3.25 0 0 0-.344-.28c-.11-.08-.199-.197-.531-.157a7.468 7.468 0 0 1-.938.063c-1.302 0-2.47-.33-3.28-.813-.812-.482-1.22-1.09-1.22-1.687 0-.598.408-1.205 1.22-1.688.81-.482 1.978-.781 3.28-.781zm-4.907 6.125c-1.45 0-2.787.346-3.781.938-.994.591-1.688 1.49-1.688 2.53a.496.496 0 0 0 .032.157c.015.203.028.404.094.594.082.241.193.476.343.687.15.212.327.414.531.594.204.18.44.32.688.469.154.092.33.17.5.25-.049.198-.124.487-.219.781-.095.297-.221.613-.281.875-.03.13-.032.23-.031.375 0 .073-.018.164.031.281.05.118.195.267.375.313a.496.496 0 0 0 .031 0 .55.55 0 0 0 .375-.032.9.9 0 0 0 .188-.093c.11-.077.203-.178.312-.282.22-.206.476-.459.719-.718.243-.26.47-.512.656-.688.083-.079.143-.153.188-.187.299.03.626.062.937.062 1.45 0 2.757-.346 3.75-.937.994-.592 1.688-1.459 1.688-2.5s-.694-1.94-1.688-2.532c-.993-.591-2.3-.937-3.75-.937zm0 1c1.291 0 2.447.335 3.25.813.803.478 1.219 1.065 1.219 1.656 0 .59-.416 1.178-1.219 1.656-.803.478-1.959.781-3.25.781-.323 0-.667-.024-.969-.062-.332-.041-.39.11-.5.187-.11.078-.233.177-.343.282-.21.198-.426.441-.656.687a9.14 9.14 0 0 0 .156-.563c.032-.13.057-.237.062-.375a.697.697 0 0 0-.031-.25c-.034-.108-.127-.3-.313-.375-.241-.097-.486-.193-.687-.312-.2-.12-.378-.24-.531-.375a2.504 2.504 0 0 1-.375-.438A1.71 1.71 0 0 1 9.125 20a1.15 1.15 0 0 1-.063-.406c0-.59.385-1.21 1.188-1.688.803-.478 1.99-.781 3.281-.781z" color="#000" font-family="sans-serif" font-weight="400" overflow="visible" transform="translate(0 1020.362)"></path></g></svg>